<svg xmlns="http://www.w3.org/2000/svg" width="160" height="74" viewBox="0 0 160 74" role="img" aria-label="boleto">
  <rect width="160" height="74" rx="10" fill="#FFF22D"/>
  
    <g fill="#2360A5">
      <rect x="28" y="18" width="4" height="38" rx="1"/>
      <rect x="36" y="18" width="2" height="38" rx="1"/>
      <rect x="42" y="18" width="6" height="38" rx="1"/>
      <rect x="52" y="18" width="2" height="38" rx="1"/>
      <rect x="58" y="18" width="3" height="38" rx="1"/>
      <rect x="65" y="18" width="8" height="38" rx="1"/>
      <rect x="77" y="18" width="2" height="38" rx="1"/>
      <rect x="83" y="18" width="5" height="38" rx="1"/>
      <rect x="92" y="18" width="2" height="38" rx="1"/>
      <rect x="98" y="18" width="7" height="38" rx="1"/>
      <rect x="109" y="18" width="2" height="38" rx="1"/>
      <rect x="115" y="18" width="4" height="38" rx="1"/>
      <rect x="123" y="18" width="9" height="38" rx="1"/>
    </g>
  
</svg>
